<svg xmlns="http://www.w3.org/2000/svg" xmlns:xlink="http://www.w3.org/1999/xlink" width="40" zoomAndPan="magnify"
     viewBox="0 0 30 30.000001" height="40" preserveAspectRatio="xMidYMid meet" version="1.0">
  <defs>
    <clipPath id="369169cc30">
      <path d="M 1.78125 6.796875 L 19.71875 6.796875 L 19.71875 28.316406 L 1.78125 28.316406 Z M 1.78125 6.796875 "
            clip-rule="nonzero"/>
    </clipPath>
    <clipPath id="019a0d5508">
      <path d="M 16.679688 0.980469 L 28.15625 0.980469 L 28.15625 15.328125 L 16.679688 15.328125 Z M 16.679688 0.980469 "
            clip-rule="nonzero"/>
    </clipPath>
  </defs>
  <g clip-path="url(#369169cc30)">
    <path fill="#b12b24"
          d="M 3.804688 28.316406 C 2.59375 28.316406 1.8125 27.375 1.8125 25.921875 C 1.8125 25.320312 1.964844 24.496094 2.160156 23.449219 C 2.449219 21.882812 2.808594 19.9375 2.808594 17.898438 C 2.757812 13.164062 2.757812 7.34375 2.757812 7.285156 C 2.757812 7.015625 2.980469 6.796875 3.257812 6.796875 L 6.242188 6.796875 C 6.519531 6.796875 6.742188 7.015625 6.742188 7.285156 L 6.742188 16.53125 C 6.742188 17.90625 7.617188 18.730469 9.082031 18.730469 C 9.472656 18.730469 10.207031 18.007812 10.523438 17.699219 C 11.035156 17.195312 11.722656 16.410156 11.722656 15.453125 L 11.722656 7.285156 C 11.722656 7.015625 11.945312 6.796875 12.21875 6.796875 L 15.207031 6.796875 C 15.480469 6.796875 15.703125 7.015625 15.703125 7.285156 L 15.703125 17.214844 C 15.703125 18.414062 15.957031 19.023438 16.453125 19.023438 C 16.941406 19.023438 17.496094 17.820312 17.710938 16.953125 C 17.765625 16.734375 17.964844 16.578125 18.195312 16.578125 L 19.191406 16.578125 C 19.324219 16.578125 19.457031 16.632812 19.550781 16.730469 C 19.644531 16.828125 19.695312 16.957031 19.6875 17.09375 C 19.609375 18.605469 18.679688 21.46875 15.703125 21.46875 C 13.769531 21.46875 12.847656 20.921875 12.164062 19.210938 C 11.714844 19.664062 11.089844 20.277344 10.636719 20.628906 C 9.828125 21.292969 8.976562 21.617188 8.035156 21.617188 C 7.285156 21.617188 6.292969 21.363281 5.414062 20.96875 C 5.449219 21.824219 5.53125 22.609375 5.613281 23.378906 C 5.707031 24.265625 5.796875 25.097656 5.796875 25.921875 C 5.796875 27.375 5.015625 28.316406 3.804688 28.316406 Z M 3.804688 28.316406 "
          fill-opacity="1" fill-rule="nonzero"/>
  </g>
  <g clip-path="url(#019a0d5508)">
    <path fill="#090a0e"
          d="M 26.496094 15.328125 C 24.90625 15.328125 24.109375 14.757812 23.558594 13.222656 L 22.273438 9.710938 L 20.03125 15.328125 L 16.75 15.328125 L 20.949219 5.769531 L 20.707031 5.140625 C 20.167969 3.773438 19.929688 3.640625 19.0625 3.640625 C 19.011719 3.660156 18.945312 3.679688 18.828125 3.699219 L 18.46875 3.757812 L 18.46875 1.210938 L 18.84375 1.113281 C 19.121094 1.035156 19.320312 0.980469 19.6875 0.980469 C 21.828125 0.980469 22.578125 1.988281 23.625 4.824219 L 26.253906 11.859375 C 26.515625 12.574219 26.71875 12.679688 27.28125 12.679688 C 27.402344 12.679688 27.625 12.632812 27.699219 12.617188 L 28.074219 12.539062 L 28.074219 15.097656 L 27.855469 15.164062 C 27.546875 15.265625 27.003906 15.328125 26.496094 15.328125 Z M 26.496094 15.328125 "
          fill-opacity="1" fill-rule="nonzero"/>
  </g>
</svg>